P2
# Generated by OpenCV 3.2.0
3 3
255
  60  77  93
 111 128 145
 161 179 196
