P2
# Generated by OpenCV 3.2.0
3 3
255
 128 153 153
 204 230 230
 204 230 230
