P2
# Generated by OpenCV 3.2.0
3 3
255
  34  34  45
  34  34  45
  68  68  79
