P2
# Generated by OpenCV 3.2.0
3 3
255
  26  26  51
  26  26  51
 102 102 128
