P2
# Generated by OpenCV 3.2.0
3 3
255
  34  60  45
  77 128  94
  68 111  79
