P2
# Generated by OpenCV 3.2.0
3 3
255
 230 204 178
 153 128 102
  76  51  26
