P2
# Generated by OpenCV 3.2.0
3 3
255
  26  51  76
 102 128 153
 178 204 230
