P2
# Generated by OpenCV 3.2.0
5 5
255
   0   0   0   0   0
   0  16  32  16   0
   0  32  64  32   0
   0  16  32  16   0
   0   0   0   0   0
