P2
# Generated by OpenCV 3.2.0
3 3
255
  34  57  52
  83 128 108
  91 134 110
