P2
# Generated by OpenCV 3.2.0
3 3
255
  51  76  76
 102 128 128
 128 153 153
