P2
# Generated by OpenCV 3.2.0
3 3
255
  60  60  60
  68  77  79
  77  79  94
