P2
# Generated by OpenCV 3.2.0
3 2
255
  26 128 255
   0   0 255
