P2
# Ich bin Test
3 1
255
1 2 3
