P2
# Ich bin Test
6 10
255
0 0 0 0 150 0
0 0 0 0 150 0
0 0 0 0 150 0
0 0 0 0 150 0
0 0 0 0 150 0
0 0 0 0 150 0
150 0 0 0 150 0
0 150 150 150 0 0
0 0 0 0 0 0
0 0 0 0 0 0
