P2
# Ich bin Test
4 4
255
1 2 3 4
10 20 30 40
200 210 220 230
12 67 34 100
