P2
# Ich bin Test
2 2
255
0 235
50 255
