P2
# Ich bin Test
2 5
255
1 2
2 3
3 3
4 5
6 7
