P2
# Ich bin Test
4 4
255
10 12 17 20
15 17 22 25
25 27 32 35
30 32 37 40
