P2
# Ich bin Test
3 5
255
0 0 0
0 1 2
0 4 5
0 7 8
0 10 11
