P2
# Ich bin Test
5 3
255
3 6 9 12 15
2 5 8 11 14
1 4 7 10 13
