P2
# Ich bin Test
6 6
255
0  0  0  1  0 0
0  0  4  4  2 0
0  10 7  5  6 3
13 10 11 9  6 0
0  14 12 12 0 0
0  0  15 0  0 0
