P2
# Test
6 6
255
1 1 2 2 3 3
1 1 2 2 3 3
4 4 5 5 6 6
4 4 5 5 6 6
7 7 8 8 9 9
7 7 8 8 9 9