P2
# Ich bin Test
3 1
255
0 127 255
