P2
# Ich bin Test
2 2
255
0 59
13 64
