P2
# Ich bin Test
2 2
255
0 245
113 255
