P2
# Ich bin Test
2 2
255
64 181
89 191
