P2
# Ich bin Test
2 2
255
255 20
205 0
