P2
# Ich bin Test
2 2
255
128 255
178 255
