P2
# Ich bin Test
2 2
255
32 255
82 255
