P2
# Ich bin Test
3 3
255
30 30 30
30 30 30
30 30 40
