P2
# Ich bin Test
3 3
255
30 40 40
30 40 40
30 40 50
