P2
# Ich bin Test
2 2
255
20 23
27 30
