P2
# Ich bin Test
3 3
255
40 60 40
60 90 60
40 60 40
