P2
# Ich bin Test
3 3
255
2 3 4
4 5 6
6 7 8
