P2
# Ich bin Test
2 2
255
176 163
151 138
