P2
# Ich bin Test
2 2
255
11 9
8 7
