P2
# Ich bin Test
3 3
255
21 27 33
39 45 51
57 63 69
