P2
# Ich bin Test
3 3
255
1 2 2
3 5 4
3 4 3
