P2
# Kommutativ und assozativ aus ergaenzung
3 3
255
0 0 9
0 0 20
0 0 21
