P2
# Generated by OpenCV 3.2.0
3 1
255
128 128 64
