P2
# Ich bin Test
2 2
255
10 20
30 40
