P2
# Ich bin Test
3 3
255
50 30 40
30 100 50
30 40 50
