P2
# Ich bin Test
2 2
255
9 18
27 36
